<svg width="268" height="267" viewBox="0 0 268 267" fill="none" xmlns="http://www.w3.org/2000/svg">
<path d="M161.345 102.155C152.888 110.612 147.743 121.82 146.842 133.746C145.942 145.672 149.346 157.526 156.438 167.157L161.828 163.188C155.686 154.847 152.737 144.58 153.517 134.25C154.297 123.921 158.753 114.213 166.078 106.888L161.345 102.155Z" fill="white"/>
<path d="M165.345 106.155C156.888 114.612 145.68 119.758 133.754 120.658C121.828 121.558 109.974 118.154 100.343 111.063L104.312 105.673C112.654 111.815 122.921 114.763 133.25 113.983C143.58 113.204 153.287 108.747 160.612 101.422L165.345 106.155Z" fill="white"/>
<line x1="68.2767" y1="197.103" x2="163.736" y2="104.472" stroke="white" stroke-width="7"/>
</svg>
