<svg width="243" height="243" viewBox="0 0 243 243" fill="none" xmlns="http://www.w3.org/2000/svg">
<path d="M140.825 103.135C138.578 100.888 134.904 100.87 132.93 103.36C126.751 111.154 123.009 120.653 122.253 130.657C121.498 140.662 123.772 150.615 128.71 159.248C130.288 162.007 133.923 162.54 136.482 160.656V160.656C139.042 158.771 139.545 155.184 138.063 152.372C134.704 146.003 133.182 138.781 133.73 131.524C134.278 124.267 136.867 117.355 141.144 111.562C143.031 109.005 143.072 105.382 140.825 103.135V103.135Z" fill="white"/>
<path d="M140.233 103.544C142.179 105.489 142.193 108.666 140.064 110.408C132.16 116.876 122.428 120.794 112.165 121.569C101.902 122.344 91.6919 119.931 82.9064 114.723C80.5396 113.32 80.0767 110.178 81.708 107.962V107.962C83.3394 105.747 86.446 105.304 88.8469 106.648C95.6837 110.474 103.529 112.229 111.415 111.634C119.3 111.038 126.793 108.126 132.978 103.316C135.15 101.627 138.288 101.598 140.233 103.544V103.544Z" fill="white"/>
<path d="M66.6876 175.014L138.454 105.374" stroke="white" stroke-width="10" stroke-linecap="round"/>
</svg>
