<svg width="267" height="267" viewBox="0 0 267 267" fill="none" xmlns="http://www.w3.org/2000/svg">
<path d="M163.123 104.433C161.816 103.126 159.687 103.119 158.47 104.51C151.374 112.626 147.069 122.847 146.253 133.657C145.437 144.468 148.158 155.219 153.956 164.308C154.95 165.867 157.055 166.179 158.544 165.083V165.083C160.032 163.987 160.338 161.898 159.36 160.33C154.503 152.538 152.232 143.375 152.928 134.161C153.623 124.948 157.244 116.229 163.216 109.255C164.418 107.851 164.43 105.74 163.123 104.433V104.433Z" fill="white"/>
<path d="M162.39 103.7C163.697 105.007 163.704 107.135 162.312 108.352C154.196 115.449 143.975 119.753 133.165 120.569C122.354 121.385 111.604 118.664 102.514 112.866C100.955 111.872 100.643 109.767 101.739 108.278V108.278C102.835 106.79 104.924 106.484 106.492 107.462C114.284 112.319 123.448 114.59 132.661 113.894C141.874 113.199 150.593 109.578 157.567 103.606C158.971 102.404 161.083 102.393 162.39 103.7V103.7Z" fill="white"/>
<path d="M67.6876 197.014L163.147 104.383" stroke="white" stroke-width="7" stroke-linecap="round"/>
</svg>
